HIERARCHY
ROOT pelvis
{
  OFFSET 0 100 0
  CHANNELS 6 Xposition Yposition Zposition Zrotation Xrotation Yrotation
  JOINT pelvis_right_femur
  {
    OFFSET -10.78128 -3.44521 -0.5502486
    CHANNELS 3 Zrotation Xrotation Yrotation
    JOINT right_femur_tibia
    {
      OFFSET -0.8047443 -44.0398 -0.1307829
      CHANNELS 3 Zrotation Xrotation Yrotation
      JOINT right_tibia_foot
      {
        OFFSET 3.006224 -47.83518 -5
        CHANNELS 3 Zrotation Xrotation Yrotation
        End Site
        {
          OFFSET 0 -5 15
        }
      }
    }
  }
  JOINT pelvis_left_femur
  {
    OFFSET 10.78128 -3.44521 -0.5502486
    CHANNELS 3 Zrotation Xrotation Yrotation
    JOINT left_femur_tibia
    {
      OFFSET 0.8047443 -44.0398 -0.1307829
      CHANNELS 3 Zrotation Xrotation Yrotation
      JOINT left_tibia_foot
      {
        OFFSET -4.370144 -48.10324 -4.275266
        CHANNELS 3 Zrotation Xrotation Yrotation
        End Site
        {
          OFFSET 0 -5 15
        }
      }
    }
  }
  JOINT pelvis_spine1
  {
    OFFSET 0 6.468898 -3.129235
    CHANNELS 3 Zrotation Xrotation Yrotation
    JOINT spine1
    {
      OFFSET 0 23.15396 4.99043
      CHANNELS 3 Zrotation Xrotation Yrotation
      JOINT spine2
      {
        OFFSET 0 20.79997 -5.064912
        CHANNELS 3 Zrotation Xrotation Yrotation
        JOINT neck
        {
          OFFSET 0 14.38658 9.616178
          CHANNELS 3 Zrotation Xrotation Yrotation
          End Site
          {
            OFFSET 0 20 0
          }
        }
      }
      JOINT right_manubrium
      {
        OFFSET -5.722621 16.35077 3.967754
        CHANNELS 3 Zrotation Xrotation Yrotation
        JOINT right_clavicle
        {
          OFFSET -13.16364 1.694482 -4.693211
          CHANNELS 3 Zrotation Xrotation Yrotation
          JOINT right_humerus
          {
            OFFSET -28.5034 -0.3100689 -2.792744
            CHANNELS 3 Zrotation Xrotation Yrotation
            JOINT right_radius
            {
              OFFSET -25.15693 0.02248979 -1.271978
              CHANNELS 3 Zrotation Xrotation Yrotation
              End Site
              {
                OFFSET -15 0 0
              }
            }
          }
        }
      }
      JOINT left_manubrium
      {
        OFFSET 5.722621 16.35077 3.967754
        CHANNELS 3 Zrotation Xrotation Yrotation
        JOINT left_clavicle
        {
          OFFSET 13.16364 1.694482 -4.693211
          CHANNELS 3 Zrotation Xrotation Yrotation
          JOINT left_humerus
          {
            OFFSET 29.39168 -1.063119 -2.237045
            CHANNELS 3 Zrotation Xrotation Yrotation
            JOINT left_radius
            {
              OFFSET 24.59957 -0.9528479 0.9047498
              CHANNELS 3 Zrotation Xrotation Yrotation
              End Site
              {
                OFFSET 15 -0 -0
              }
            }
          }
        }
      }
    }
  }
}
MOTION
Frames: 15
Frame Time: 0.0416666666667
22.85807 100.4372 258.0514 -0.112789 -2.233424 -1.663706 1.54657 12.00845 6.760712 -0 29.19188 -0 2.529319 -12.15974 -8.735075 2.607242 -31.16719 -2.738319 -0 25.31406 -0 -9.569016 -7.835941 20.31275 1.24102 -5.667114 9.616071 -2.872527 10.93309 -2.081116 2.401315 19.1235 4.833778 2.459101 -15.37999 5.409283 2.776904 -22.37597 11.26757 77.41463 18.74728 -2.119321 -0 0 25.47723 -23.2051 8.767135 17.35468 1.760228 -15.66532 -2.966908 -88.69851 19.33016 25.6159 0 0 -13.39671 -5.045642 7.697343 21.68449
24.23553 100.5659 265.2855 -0.0984086 -2.131788 -1.314639 1.171049 11.45313 6.572564 -0 36.65534 -0 5.31392 -7.331889 -9.349144 1.113285 -28.79744 -4.174209 -0 27.03949 -0 -9.081986 -8.423125 19.53668 1.106447 -6.790912 9.465281 -2.830393 10.80348 -2.097768 2.542256 19.42636 4.767253 2.465789 -15.23283 5.501964 2.686688 -21.32209 10.69325 78.22619 18.47576 -3.158413 -0 0 24.61348 -23.24349 8.508276 17.08664 1.770309 -15.00676 -2.765066 -88.65293 19.43882 25.42956 0 0 -13.02627 -5.243005 7.797541 21.87934
25.62621 101.2732 272.2756 -0.08079507 -1.981095 -0.7926742 0.4456919 8.539802 6.115371 -0 45.25229 -0 7.402545 -3.809618 -10.25727 0.07663489 -25.68622 -5.461355 -0 27.90614 -0 -8.328219 -10.01542 18.54153 1.065304 -7.751166 9.168802 -2.796677 10.7643 -1.964216 2.596795 19.78846 4.781101 2.421311 -15.13563 5.644983 2.966443 -20.09382 10.4185 79.24206 18.48041 -4.709664 -0 0 22.69006 -22.98267 8.408455 16.48331 1.676455 -14.84589 -2.626075 -88.05355 19.62015 24.53943 0 0 -13.10216 -5.209518 8.003858 21.65009
26.87478 102.2977 278.6948 -0.06683823 -1.841423 -0.3091261 0.685135 2.772073 5.310125 -0 53.21704 -0 8.245244 -2.345574 -11.39252 -0.9644992 -21.323 -6.28716 -0 27.31936 -0 -7.571612 -12.07981 17.76285 1.045049 -8.23306 8.518542 -2.724874 10.71571 -1.913519 2.474563 20.23894 4.978597 2.26911 -14.99249 5.902646 3.548098 -19.08124 10.43467 80.40097 18.73635 -6.305835 -0 0 20.2068 -22.42478 8.438177 15.66564 1.492592 -15.19299 -2.701013 -86.99961 19.85799 22.86324 0 0 -13.53994 -4.985395 8.296343 21.14544
28.05496 103.61 284.5588 -0.05259948 -1.671515 0.2769146 1.52524 -4.247321 5.178898 -0 58.17558 -0 7.816359 -2.064366 -11.61102 -1.706683 -16.65261 -6.759408 -0 25.36817 -0 -7.141073 -13.8281 17.06661 0.9765267 -8.250661 7.399493 -2.525259 10.87405 -2.21077 2.34065 20.91358 5.246265 2.105739 -14.66896 6.253022 3.981436 -18.32383 10.37602 81.66687 19.11007 -7.832762 -0 0 17.79964 -21.69043 8.522976 14.8356 1.366993 -15.51596 -2.911487 -85.91891 20.07747 20.79083 0 0 -14.11215 -4.691045 8.639998 20.56476
28.90725 104.8774 289.8524 -0.03317676 -1.390648 1.244843 2.359473 -9.73298 5.031739 -0 59.43587 -0 6.763354 -1.457339 -11.30995 -2.093137 -12.10436 -7.112783 -0 22.60345 -0 -7.023007 -15.12251 16.23716 0.5096153 -8.481323 6.113964 -2.064168 10.53252 -2.982935 2.176462 21.40292 5.636438 1.920273 -14.55719 6.738622 4.177771 -17.38801 10.20195 83.07118 19.4749 -9.493807 -0 0 15.61656 -20.87147 8.590493 14.05717 1.627723 -16.03456 -3.391996 -84.72344 20.23718 18.00819 0 0 -15.16702 -4.314087 8.97786 19.747
29.84706 105.8802 295.1463 -0.010624 -0.9390856 2.806637 2.959779 -16.44376 5.142468 -0 56.38858 -0 5.519373 -2.643784 -11.41461 -2.427115 -7.643996 -7.361498 -0 19.54686 -0 -7.030134 -16.26171 15.25097 0.05179461 -8.65555 4.71973 -1.428467 10.28261 -4.260496 2.255984 21.95648 5.889417 1.87361 -14.36019 7.240344 3.879016 -16.42142 9.637851 84.21495 19.71879 -11.31346 -0 0 13.75981 -20.13674 8.576375 13.39834 1.933049 -16.57803 -3.887179 -83.58726 20.31158 14.99882 0 0 -16.39488 -3.917331 9.324704 18.67442
30.61928 106.2043 300.4089 0.001005704 -0.4540238 4.487438 2.817507 -22.53786 4.955164 -0 50.08199 -0 4.400942 -3.029594 -12.33354 -2.479185 -3.495377 -7.467061 -0 16.88816 -0 -7.013792 -17.56335 14.20233 -0.5226068 -8.695708 3.483105 -0.6541299 9.90911 -5.716364 2.401918 22.34683 6.075637 1.864013 -14.22803 7.701857 3.38249 -15.52867 8.981708 85.0292 19.88169 -13.11477 -0 0 12.06611 -19.49586 8.494844 12.79645 2.34767 -17.19192 -4.485371 -82.40676 20.37974 11.85503 0 0 -17.6459 -3.512309 9.679423 17.44231
31.38462 105.8581 305.7726 0.0009722605 -0.07726132 5.796292 2.191798 -28.15059 4.669056 -0 41.0536 -0 3.369764 -3.042457 -13.81223 -2.448466 0.3482285 -7.563209 -0 15.18379 -0 -6.918899 -19.14025 13.24038 -1.080918 -8.498655 2.364751 0.1503774 9.574655 -7.116503 2.606986 22.37782 6.177079 1.877143 -14.31849 8.095055 2.757213 -14.49257 8.411796 85.59978 20.02628 -14.98894 -0 0 10.15826 -18.88328 8.393975 12.07747 2.879029 -17.7691 -5.123102 -81.14825 20.44712 8.840081 0 0 -18.77587 -3.03162 10.07165 16.07681
31.9748 104.8236 311.3045 -0.006733961 0.2937972 7.089721 1.084414 -30.53883 4.322482 -0 30.94226 -0 1.993838 -3.963666 -14.56283 -2.336543 3.621159 -7.799061 -0 14.76868 -0 -6.803319 -20.83824 12.51028 -1.461723 -8.450127 1.667894 0.7537256 8.972632 -7.948026 2.827273 22.45469 6.178952 1.920276 -14.40149 8.360591 2.231798 -13.62716 8.011328 86.23886 20.14022 -16.46194 -0 0 8.500671 -18.2148 8.281859 11.45411 3.505438 -18.68423 -5.293289 -79.76068 20.31156 5.78591 0 0 -20.20325 -2.296734 10.50483 14.49348
32.66064 103.5261 317.4205 -0.01006024 0.398251 7.455708 0.7256147 -32.50007 4.126733 -0 22.58227 -0 0.499858 -5.265211 -14.87971 -2.274397 6.29514 -8.198757 -0 15.89855 -0 -6.838794 -22.20233 12.02194 -1.512673 -8.486837 1.296278 1.216557 8.834553 -8.258564 2.956337 22.32416 6.165499 1.925096 -14.67966 8.515277 1.819983 -12.24567 7.775195 87.07019 20.25179 -18.17387 -0 0 6.272268 -17.32399 8.265459 10.54699 4.08885 -19.25001 -5.108277 -78.73685 20.13439 3.521726 0 0 -21.18324 -1.544206 10.94787 13.01973
32.87097 102.3181 322.5602 -0.01781247 0.5876741 8.119252 1.071313 -34.48009 3.818841 -0 17.42649 -0 -0.8570095 -6.141015 -15.22995 -1.997125 8.974819 -7.983747 -0 17.25597 -0 -7.087434 -22.88035 11.63991 -1.469787 -7.686616 1.194554 1.557051 8.354101 -8.059934 2.991075 22.19083 6.099407 1.901776 -15.03889 8.51147 1.926848 -11.5855 8.112276 87.68918 20.43809 -19.09658 -0 0 4.265143 -16.31839 8.323763 9.616631 4.390306 -20.09811 -5.012184 -77.66405 19.93886 1.200439 0 0 -21.71909 -0.8115302 11.35986 11.70219
33.14206 101.4208 328.8318 -0.0251777 0.7342835 8.63359 1.55514 -34.33676 4.020812 -0 17.69558 -0 -1.962257 -6.220926 -15.55978 -1.5399 10.88632 -7.918993 -0 20.36022 -0 -7.72873 -22.09324 11.50525 -1.360791 -7.672604 0.9532557 1.74317 8.065949 -7.927094 2.962426 22.17987 6.080625 1.887363 -15.41688 8.491616 2.05378 -10.73734 8.179398 88.32792 20.55635 -19.91041 -0 0 2.519009 -15.36225 8.390834 8.843152 4.516559 -20.30679 -4.642417 -77.33576 19.81394 0.172911 0 0 -21.43499 -0.2186564 11.70742 10.68009
33.28629 100.8508 335.5594 -0.03404797 0.8834318 9.156739 3.145104 -33.08573 5.278985 -0 21.21846 -0 -2.625905 -5.517838 -15.13821 -1.05325 11.69005 -7.947307 -0 25.53354 -0 -8.7068 -19.5668 11.84593 -1.279524 -8.334384 0.6316558 1.837007 7.914419 -7.944259 2.865925 22.42562 6.084962 1.888814 -15.66398 8.420598 2.180581 -10.02491 7.962621 88.77075 20.6311 -20.29543 -0 0 1.496409 -14.62256 8.414782 8.381078 4.573529 -20.01281 -4.089577 -77.7004 19.81787 0.2738975 0 0 -20.38512 0.1693133 11.99385 9.979715
33.4021 101.0734 342.9679 -0.04063584 0.9779371 9.488127 3.63047 -31.84866 6.944472 -0 26.24565 -0 -3.398005 -5.334667 -14.47091 -0.7463476 11.13462 -7.737587 -0 33.06608 -0 -9.865059 -15.52041 12.9936 -1.208311 -9.500062 0.470594 1.884836 7.869344 -8.028325 2.720755 22.88232 6.10931 1.908775 -15.85417 8.313331 2.273797 -9.786349 7.710172 88.57853 20.77806 -19.94748 -0 0 1.360718 -14.24947 8.349932 8.288909 4.434357 -19.09277 -3.57297 -78.80686 19.92951 1.473149 0 0 -18.57411 0.330868 12.25004 9.568965
